<?xml version="1.0" standalone="no"?>
<!DOCTYPE svg PUBLIC "-//W3C//DTD SVG 20010904//EN"
 "http://www.w3.org/TR/2001/REC-SVG-20010904/DTD/svg10.dtd">
<svg version="1.0" xmlns="http://www.w3.org/2000/svg"
 width="1280.000000pt" height="344.000000pt" viewBox="0 0 1280.000000 344.000000"
 preserveAspectRatio="xMidYMid meet">
<metadata>
Created by potrace 1.15, written by Peter Selinger 2001-2017
</metadata>
<g transform="translate(0.000000,344.000000) scale(0.100000,-0.100000)"
fill="#000000" stroke="none">
<path d="M9430 3371 c-110 -17 -230 -71 -312 -141 -59 -51 -135 -164 -164
-244 -42 -117 -46 -178 -42 -591 l4 -390 27 -80 c57 -172 150 -280 320 -373
l97 -54 173 4 c205 5 264 20 382 100 130 86 227 227 274 398 12 41 21 78 21
83 0 4 -70 6 -156 5 l-157 -3 -12 -42 c-26 -87 -98 -173 -179 -215 -59 -31
-185 -36 -263 -12 -78 24 -160 104 -194 189 -24 60 -24 62 -24 435 0 367 0
376 23 431 30 76 90 142 160 176 50 24 69 28 147 28 80 0 97 -3 148 -29 86
-44 155 -130 191 -238 5 -16 22 -18 161 -18 l157 0 -7 33 c-55 262 -227 463
-455 532 -64 19 -240 27 -320 16z"/>
<path d="M875 3349 c-207 -32 -380 -108 -490 -217 -115 -113 -178 -229 -210
-391 -23 -110 -16 -455 10 -546 55 -194 193 -354 380 -440 74 -35 199 -78 488
-170 210 -67 280 -100 342 -161 79 -76 90 -113 90 -299 0 -155 -1 -162 -28
-217 -65 -131 -203 -200 -407 -201 -199 -1 -329 65 -430 215 -22 33 -49 86
-61 119 -12 32 -25 59 -29 59 -6 0 -442 -190 -449 -196 -7 -6 43 -141 76 -208
98 -196 228 -304 486 -406 l128 -50 174 0 c392 0 632 72 804 240 116 114 185
257 212 442 16 111 7 434 -15 513 -49 176 -166 332 -317 418 -64 38 -238 109
-344 141 -232 71 -404 130 -450 154 -27 15 -75 52 -106 82 -78 77 -94 127 -94
290 0 117 2 129 28 182 54 110 154 170 320 190 216 27 369 -61 470 -272 23
-49 45 -89 49 -90 8 0 420 189 427 196 3 2 -10 43 -28 92 -105 278 -280 442
-549 513 -88 24 -373 35 -477 18z"/>
<path d="M2400 3140 l0 -220 218 2 217 3 3 218 2 217 -220 0 -220 0 0 -220z"/>
<path d="M3417 3353 c-4 -3 -7 -705 -7 -1559 l0 -1554 23 -5 c12 -3 393 -4
847 -3 l825 3 3 228 c2 212 1 229 -15 233 -10 3 -279 6 -598 7 l-580 2 -3
1328 -2 1327 -243 0 c-134 0 -247 -3 -250 -7z"/>
<path d="M5492 2438 l3 -923 580 -3 c319 -1 590 0 603 3 22 5 23 7 20 146 l-3
141 -440 -1 c-242 -1 -446 3 -453 7 -9 7 -12 62 -10 243 l3 234 383 3 383 2
-3 143 -3 142 -365 2 c-201 2 -373 3 -382 3 -17 0 -18 18 -18 245 l0 245 453
2 452 3 3 143 3 142 -606 0 -605 0 2 -922z"/>
<path d="M7080 2440 l0 -920 150 0 150 0 0 661 c-1 364 1 663 2 665 2 1 44
-70 95 -159 50 -89 166 -295 258 -457 92 -162 219 -388 283 -502 l117 -208
168 0 167 0 0 920 0 920 -145 0 -145 0 0 -677 c0 -430 -3 -674 -10 -667 -9 9
-123 211 -390 689 -64 116 -159 284 -210 375 -51 91 -107 191 -124 222 l-31
58 -167 0 -168 0 0 -920z"/>
<path d="M10596 3344 c-3 -8 -6 -422 -6 -919 0 -823 1 -903 16 -909 21 -8
1169 -7 1189 0 12 5 15 31 15 145 0 104 -3 139 -12 139 -7 1 -197 0 -423 0
-225 0 -425 2 -442 6 l-33 7 0 238 0 239 385 0 386 0 -3 143 -3 142 -382 3
-383 2 0 245 0 245 453 2 452 3 0 140 0 140 -601 3 c-542 2 -602 1 -608 -14z"/>
<path d="M2405 1038 c-3 -7 -4 -191 -3 -407 l3 -395 212 185 212 184 -2 220
-2 220 -208 3 c-161 2 -209 0 -212 -10z"/>
<path d="M7127 828 c-52 -14 -112 -73 -126 -123 -15 -53 -13 -311 3 -353 16
-46 72 -100 115 -112 135 -37 256 20 282 134 6 30 10 109 8 193 -4 138 -5 142
-34 184 -16 23 -47 51 -67 61 -45 23 -129 31 -181 16z m169 -79 c48 -45 54
-68 54 -214 0 -93 -4 -146 -14 -169 -46 -109 -226 -109 -272 0 -10 23 -14 76
-14 170 0 121 2 141 22 175 29 52 69 71 140 66 44 -2 64 -9 84 -28z"/>
<path d="M9877 828 c-52 -14 -112 -73 -126 -123 -6 -22 -11 -103 -11 -181 0
-129 2 -144 25 -190 14 -28 40 -59 62 -74 32 -22 47 -25 122 -25 102 0 143 19
181 87 24 41 25 51 25 215 l0 171 -30 44 c-17 24 -48 52 -70 62 -46 23 -125
29 -178 14z m150 -65 c58 -27 73 -73 73 -233 0 -149 -10 -185 -63 -224 -39
-29 -135 -29 -174 0 -53 39 -63 75 -63 223 0 156 16 207 73 235 42 20 110 20
154 -1z"/>
<path d="M12437 826 c-87 -24 -134 -94 -124 -183 9 -81 43 -103 232 -147 89
-20 120 -50 112 -108 -10 -72 -57 -102 -162 -102 -57 0 -80 5 -124 28 -48 25
-55 26 -69 13 -22 -22 -11 -39 44 -66 57 -29 176 -39 242 -22 89 24 142 104
127 192 -12 73 -71 108 -228 139 -77 15 -117 49 -117 99 0 99 140 146 253 85
47 -24 49 -25 63 -7 19 26 14 35 -37 60 -56 29 -149 37 -212 19z"/>
<path d="M5702 813 c-6 -10 -44 -112 -87 -228 -42 -116 -87 -239 -100 -274
-27 -70 -25 -83 8 -77 12 3 24 5 27 5 3 1 17 33 30 71 l24 71 140 -3 139 -3
21 -60 c12 -33 25 -66 29 -73 10 -15 43 -16 52 -1 4 6 -16 72 -44 147 -28 75
-75 205 -105 287 l-54 150 -36 3 c-25 2 -37 -2 -44 -15z m56 -90 c74 -206 100
-282 95 -287 -4 -3 -55 -6 -115 -6 -80 0 -108 3 -108 13 -1 19 104 307 112
307 3 0 11 -12 16 -27z"/>
<path d="M6277 823 c-4 -3 -7 -136 -7 -294 l0 -289 26 -6 c14 -4 83 -5 154 -2
102 4 134 8 160 24 50 29 73 66 78 127 5 64 -15 111 -59 135 -35 21 -36 26 -4
40 38 18 58 66 53 133 -5 66 -29 101 -85 125 -34 15 -303 21 -316 7z m307 -66
c32 -21 48 -75 35 -122 -15 -53 -47 -65 -179 -65 l-110 0 0 98 c0 54 3 102 8
106 4 5 55 6 114 4 76 -3 113 -9 132 -21z m-4 -262 c38 -20 50 -43 50 -97 0
-48 -23 -82 -67 -99 -13 -5 -71 -9 -129 -9 l-104 0 0 110 0 110 110 0 c79 0
119 -4 140 -15z"/>
<path d="M7732 533 l3 -298 25 0 25 0 3 120 c2 80 7 122 15 127 20 13 142 9
160 -4 9 -7 42 -65 75 -128 54 -108 60 -115 90 -117 18 -2 32 1 32 7 0 8 -22
52 -96 186 l-33 61 40 33 c96 77 94 212 -4 284 -25 19 -45 21 -183 24 l-154 3
2 -298z m314 215 c21 -21 28 -39 32 -81 4 -49 2 -57 -26 -88 l-30 -34 -116 -3
-116 -4 0 122 0 122 115 -4 c109 -3 116 -4 141 -30z"/>
<path d="M8601 808 c-4 -13 -50 -138 -101 -278 -51 -140 -96 -263 -101 -272
-8 -14 -4 -19 17 -24 33 -8 38 -3 67 76 l24 65 139 3 140 3 24 -71 c19 -56 30
-72 48 -77 13 -3 27 -2 32 3 7 7 -69 228 -187 539 -17 46 -21 50 -56 53 -31 3
-38 -1 -46 -20z m107 -210 c29 -80 52 -151 52 -157 0 -13 -216 -16 -223 -3 -7
11 105 324 113 315 4 -4 30 -74 58 -155z"/>
<path d="M9080 805 c0 -25 1 -25 90 -25 l90 0 2 -272 3 -273 25 0 25 0 5 270
5 270 88 3 c85 3 87 3 87 27 l0 25 -210 0 -210 0 0 -25z"/>
<path d="M10480 536 c0 -291 0 -295 21 -301 12 -4 25 -3 30 2 4 4 10 62 11
128 l3 120 73 3 c40 2 80 -1 89 -6 9 -5 44 -63 77 -128 56 -109 63 -119 89
-119 32 -1 43 10 29 28 -5 7 -34 60 -66 119 l-57 107 35 23 c102 67 103 218 3
292 -25 19 -45 21 -183 24 l-154 3 0 -295z m285 230 c68 -29 88 -130 36 -188
l-29 -33 -116 -3 -116 -4 0 114 c0 63 3 118 7 121 13 13 183 7 218 -7z"/>
<path d="M11232 533 l3 -298 25 0 25 0 0 295 0 295 -28 3 -27 3 2 -298z"/>
<path d="M11632 533 l3 -298 185 0 185 0 3 28 3 27 -160 0 -161 0 0 105 0 105
140 0 140 0 0 30 0 30 -140 0 -141 0 3 108 3 107 158 3 157 3 0 24 0 25 -190
0 -190 0 2 -297z"/>
</g>
</svg>
